<svg width="54" height="53" viewBox="0 0 54 53" fill="none" xmlns="http://www.w3.org/2000/svg">
<path d="M18.5625 5.52087C11.4289 5.52087 5.625 11.2173 5.625 18.2188V34.7813C5.625 41.7828 11.4289 47.4792 18.5625 47.4792H35.4375C42.5711 47.4792 48.375 41.7828 48.375 34.7813V18.2188C48.375 11.2173 42.5711 5.52087 35.4375 5.52087H18.5625ZM38.25 13.25C39.4931 13.25 40.5 14.2383 40.5 15.4584C40.5 16.6774 39.4931 17.6667 38.25 17.6667C37.0069 17.6667 36 16.6774 36 15.4584C36 14.2383 37.0069 13.25 38.25 13.25ZM27 15.4584C33.2033 15.4584 38.25 20.4117 38.25 26.5C38.25 32.5884 33.2033 37.5417 27 37.5417C20.7968 37.5417 15.75 32.5884 15.75 26.5C15.75 20.4117 20.7968 15.4584 27 15.4584ZM27 18.7709C25.9658 18.7709 24.9418 18.9708 23.9864 19.3592C23.0309 19.7476 22.1628 20.317 21.4315 21.0347C20.7003 21.7524 20.1202 22.6045 19.7244 23.5422C19.3287 24.48 19.125 25.485 19.125 26.5C19.125 27.5151 19.3287 28.5201 19.7244 29.4579C20.1202 30.3956 20.7003 31.2477 21.4315 31.9654C22.1628 32.6831 23.0309 33.2524 23.9864 33.6409C24.9418 34.0293 25.9658 34.2292 27 34.2292C28.0342 34.2292 29.0582 34.0293 30.0136 33.6409C30.9691 33.2524 31.8372 32.6831 32.5685 31.9654C33.2997 31.2477 33.8798 30.3956 34.2756 29.4579C34.6713 28.5201 34.875 27.5151 34.875 26.5C34.875 25.485 34.6713 24.48 34.2756 23.5422C33.8798 22.6045 33.2997 21.7524 32.5685 21.0347C31.8372 20.317 30.9691 19.7476 30.0136 19.3592C29.0582 18.9708 28.0342 18.7709 27 18.7709Z" fill="#DF8480"/>
</svg>
