<svg width="44" height="43" viewBox="0 0 44 43" fill="none" xmlns="http://www.w3.org/2000/svg">
<path d="M44 7.70561C42.3529 8.41947 40.6986 8.95837 38.8652 9.14034C40.6986 8.06254 42.1667 6.27087 42.8971 4.29724C41.0638 5.37504 39.2305 6.08891 37.2181 6.45284C35.3848 4.66117 33 3.58337 30.4362 3.58337C25.4805 3.58337 21.4486 7.52364 21.4486 12.3597C21.4486 13.0806 21.4486 13.7945 21.6348 14.3334C14.1152 13.9764 7.51953 10.5681 3.11523 5.19308C2.19857 6.45284 1.83333 8.06254 1.83333 9.67224C1.83333 12.7237 3.48047 15.4112 5.86523 17.0209C4.39714 16.8389 2.9362 16.482 1.83333 15.9431C1.83333 15.9431 1.83333 15.9431 1.83333 16.125C1.83333 20.4222 4.94857 24.0056 8.98047 24.7264C8.25 24.9014 7.51953 25.0834 6.60287 25.0834C6.05143 25.0834 5.5 25.0834 4.94857 24.9014C6.05143 28.4847 9.35287 30.9973 13.3848 30.9973C10.2695 33.3278 6.41667 34.7556 2.19857 34.7556C1.4681 34.7556 0.73047 34.7556 0 34.5806C4.0319 37.0861 8.80143 38.5209 13.75 38.5209C30.4362 38.5209 39.4167 25.0834 39.4167 13.4375C39.4167 13.0806 39.4167 12.7237 39.4167 12.3597C41.25 11.107 42.7181 9.49727 44 7.70561Z" fill="#DF8480"/>
</svg>
